<svg id="my-svg" width="100%" xmlns="http://www.w3.org/2000/svg" xmlns:xlink="http://www.w3.org/1999/xlink" class="flowchart" style="max-width: 751.527px; background-color: transparent;" viewBox="0 0 751.52734375 996.6875" role="graphics-document document" aria-roledescription="flowchart-v2"><style>#my-svg{font-family:"trebuchet ms",verdana,arial,sans-serif;font-size:16px;fill:#333;}@keyframes edge-animation-frame{from{stroke-dashoffset:0;}}@keyframes dash{to{stroke-dashoffset:0;}}#my-svg .edge-animation-slow{stroke-dasharray:9,5!important;stroke-dashoffset:900;animation:dash 50s linear infinite;stroke-linecap:round;}#my-svg .edge-animation-fast{stroke-dasharray:9,5!important;stroke-dashoffset:900;animation:dash 20s linear infinite;stroke-linecap:round;}#my-svg .error-icon{fill:#552222;}#my-svg .error-text{fill:#552222;stroke:#552222;}#my-svg .edge-thickness-normal{stroke-width:1px;}#my-svg .edge-thickness-thick{stroke-width:3.5px;}#my-svg .edge-pattern-solid{stroke-dasharray:0;}#my-svg .edge-thickness-invisible{stroke-width:0;fill:none;}#my-svg .edge-pattern-dashed{stroke-dasharray:3;}#my-svg .edge-pattern-dotted{stroke-dasharray:2;}#my-svg .marker{fill:#333333;stroke:#333333;}#my-svg .marker.cross{stroke:#333333;}#my-svg svg{font-family:"trebuchet ms",verdana,arial,sans-serif;font-size:16px;}#my-svg p{margin:0;}#my-svg .label{font-family:"trebuchet ms",verdana,arial,sans-serif;color:#333;}#my-svg .cluster-label text{fill:#333;}#my-svg .cluster-label span{color:#333;}#my-svg .cluster-label span p{background-color:transparent;}#my-svg .label text,#my-svg span{fill:#333;color:#333;}#my-svg .node rect,#my-svg .node circle,#my-svg .node ellipse,#my-svg .node polygon,#my-svg .node path{fill:#ECECFF;stroke:#9370DB;stroke-width:1px;}#my-svg .rough-node .label text,#my-svg .node .label text,#my-svg .image-shape .label,#my-svg .icon-shape .label{text-anchor:middle;}#my-svg .node .katex path{fill:#000;stroke:#000;stroke-width:1px;}#my-svg .rough-node .label,#my-svg .node .label,#my-svg .image-shape .label,#my-svg .icon-shape .label{text-align:center;}#my-svg .node.clickable{cursor:pointer;}#my-svg .root .anchor path{fill:#333333!important;stroke-width:0;stroke:#333333;}#my-svg .arrowheadPath{fill:#333333;}#my-svg .edgePath .path{stroke:#333333;stroke-width:1px;}#my-svg .flowchart-link{stroke:#333333;fill:none;}#my-svg .edgeLabel{background-color:rgba(232,232,232, 0.8);text-align:center;}#my-svg .edgeLabel p{background-color:rgba(232,232,232, 0.8);}#my-svg .edgeLabel rect{opacity:0.5;background-color:rgba(232,232,232, 0.8);fill:rgba(232,232,232, 0.8);}#my-svg .labelBkg{background-color:rgba(232, 232, 232, 0.5);}#my-svg .cluster rect{fill:#ffffde;stroke:#aaaa33;stroke-width:1px;}#my-svg .cluster text{fill:#333;}#my-svg .cluster span{color:#333;}#my-svg div.mermaidTooltip{position:absolute;text-align:center;max-width:200px;padding:2px;font-family:"trebuchet ms",verdana,arial,sans-serif;font-size:12px;background:hsl(80, 100%, 96.2745098039%);border:1px solid #aaaa33;border-radius:2px;pointer-events:none;z-index:100;}#my-svg .flowchartTitleText{text-anchor:middle;font-size:18px;fill:#333;}#my-svg rect.text{fill:none;stroke-width:0;}#my-svg .icon-shape,#my-svg .image-shape{background-color:rgba(232,232,232, 0.8);text-align:center;}#my-svg .icon-shape p,#my-svg .image-shape p{background-color:rgba(232,232,232, 0.8);padding:2px;}#my-svg .icon-shape .label rect,#my-svg .image-shape .label rect{opacity:0.5;background-color:rgba(232,232,232, 0.8);fill:rgba(232,232,232, 0.8);}#my-svg .label-icon{display:inline-block;height:1em;overflow:visible;vertical-align:-0.125em;}#my-svg .node .label-icon path{fill:currentColor;stroke:revert;stroke-width:revert;}#my-svg .node .neo-node{stroke:#9370DB;}#my-svg [data-look="neo"].node rect,#my-svg [data-look="neo"].cluster rect,#my-svg [data-look="neo"].node polygon{stroke:#9370DB;filter:drop-shadow(1px 2px 2px rgba(185, 185, 185, 1));}#my-svg [data-look="neo"].swimlane.cluster rect{filter:none;}#my-svg [data-look="neo"].node path{stroke:#9370DB;stroke-width:1px;}#my-svg [data-look="neo"].node .outer-path{filter:drop-shadow(1px 2px 2px rgba(185, 185, 185, 1));}#my-svg [data-look="neo"].node .neo-line path{stroke:#9370DB;filter:none;}#my-svg [data-look="neo"].node circle{stroke:#9370DB;filter:drop-shadow(1px 2px 2px rgba(185, 185, 185, 1));}#my-svg [data-look="neo"].node circle .state-start{fill:#000000;}#my-svg [data-look="neo"].icon-shape .icon{fill:#9370DB;filter:drop-shadow(1px 2px 2px rgba(185, 185, 185, 1));}#my-svg [data-look="neo"].icon-shape .icon-neo path{stroke:#9370DB;filter:drop-shadow(1px 2px 2px rgba(185, 185, 185, 1));}#my-svg :root{--mermaid-font-family:"trebuchet ms",verdana,arial,sans-serif;}#my-svg .startClass&gt;*{fill:rgb(219, 234, 254)!important;stroke:rgb(36, 87, 214)!important;color:rgb(23, 32, 51)!important;}#my-svg .startClass span{fill:rgb(219, 234, 254)!important;stroke:rgb(36, 87, 214)!important;color:rgb(23, 32, 51)!important;}#my-svg .startClass tspan{fill:rgb(23, 32, 51)!important;}#my-svg .validationClass&gt;*{fill:rgb(254, 243, 199)!important;stroke:rgb(245, 158, 11)!important;color:rgb(23, 32, 51)!important;}#my-svg .validationClass span{fill:rgb(254, 243, 199)!important;stroke:rgb(245, 158, 11)!important;color:rgb(23, 32, 51)!important;}#my-svg .validationClass tspan{fill:rgb(23, 32, 51)!important;}#my-svg .contextClass&gt;*{fill:rgb(220, 252, 231)!important;stroke:rgb(0, 168, 132)!important;color:rgb(23, 32, 51)!important;}#my-svg .contextClass span{fill:rgb(220, 252, 231)!important;stroke:rgb(0, 168, 132)!important;color:rgb(23, 32, 51)!important;}#my-svg .contextClass tspan{fill:rgb(23, 32, 51)!important;}#my-svg .graphClass&gt;*{fill:rgb(237, 233, 254)!important;stroke:rgb(124, 58, 237)!important;color:rgb(23, 32, 51)!important;}#my-svg .graphClass span{fill:rgb(237, 233, 254)!important;stroke:rgb(124, 58, 237)!important;color:rgb(23, 32, 51)!important;}#my-svg .graphClass tspan{fill:rgb(23, 32, 51)!important;}#my-svg .outputClass&gt;*{fill:rgb(248, 250, 252)!important;stroke:rgb(100, 116, 139)!important;color:rgb(23, 32, 51)!important;}#my-svg .outputClass span{fill:rgb(248, 250, 252)!important;stroke:rgb(100, 116, 139)!important;color:rgb(23, 32, 51)!important;}#my-svg .outputClass tspan{fill:rgb(23, 32, 51)!important;}#my-svg .errorClass&gt;*{fill:rgb(254, 226, 226)!important;stroke:rgb(220, 38, 38)!important;color:rgb(23, 32, 51)!important;}#my-svg .errorClass span{fill:rgb(254, 226, 226)!important;stroke:rgb(220, 38, 38)!important;color:rgb(23, 32, 51)!important;}#my-svg .errorClass tspan{fill:rgb(23, 32, 51)!important;}</style><g><marker id="my-svg_flowchart-v2-pointEnd" class="marker flowchart-v2" viewBox="0 0 10 10" refX="5" refY="5" markerUnits="userSpaceOnUse" markerWidth="8" markerHeight="8" orient="auto"><path d="M 0 0 L 10 5 L 0 10 z" class="arrowMarkerPath" style="stroke-width: 1; stroke-dasharray: 1, 0;"/></marker><marker id="my-svg_flowchart-v2-pointStart" class="marker flowchart-v2" viewBox="0 0 10 10" refX="4.5" refY="5" markerUnits="userSpaceOnUse" markerWidth="8" markerHeight="8" orient="auto"><path d="M 0 5 L 10 10 L 10 0 z" class="arrowMarkerPath" style="stroke-width: 1; stroke-dasharray: 1, 0;"/></marker><marker id="my-svg_flowchart-v2-pointEnd-margin" class="marker flowchart-v2" viewBox="0 0 11.5 14" refX="11.5" refY="7" markerUnits="userSpaceOnUse" markerWidth="10.5" markerHeight="14" orient="auto"><path d="M 0 0 L 11.5 7 L 0 14 z" class="arrowMarkerPath" style="stroke-width: 0; stroke-dasharray: 1, 0;"/></marker><marker id="my-svg_flowchart-v2-pointStart-margin" class="marker flowchart-v2" viewBox="0 0 11.5 14" refX="1" refY="7" markerUnits="userSpaceOnUse" markerWidth="11.5" markerHeight="14" orient="auto"><polygon points="0,7 11.5,14 11.5,0" class="arrowMarkerPath" style="stroke-width: 0; stroke-dasharray: 1, 0;"/></marker><marker id="my-svg_flowchart-v2-circleEnd" class="marker flowchart-v2" viewBox="0 0 10 10" refX="11" refY="5" markerUnits="userSpaceOnUse" markerWidth="11" markerHeight="11" orient="auto"><circle cx="5" cy="5" r="5" class="arrowMarkerPath" style="stroke-width: 1; stroke-dasharray: 1, 0;"/></marker><marker id="my-svg_flowchart-v2-circleStart" class="marker flowchart-v2" viewBox="0 0 10 10" refX="-1" refY="5" markerUnits="userSpaceOnUse" markerWidth="11" markerHeight="11" orient="auto"><circle cx="5" cy="5" r="5" class="arrowMarkerPath" style="stroke-width: 1; stroke-dasharray: 1, 0;"/></marker><marker id="my-svg_flowchart-v2-circleEnd-margin" class="marker flowchart-v2" viewBox="0 0 10 10" refY="5" refX="12.25" markerUnits="userSpaceOnUse" markerWidth="14" markerHeight="14" orient="auto"><circle cx="5" cy="5" r="5" class="arrowMarkerPath" style="stroke-width: 0; stroke-dasharray: 1, 0;"/></marker><marker id="my-svg_flowchart-v2-circleStart-margin" class="marker flowchart-v2" viewBox="0 0 10 10" refX="-2" refY="5" markerUnits="userSpaceOnUse" markerWidth="14" markerHeight="14" orient="auto"><circle cx="5" cy="5" r="5" class="arrowMarkerPath" style="stroke-width: 0; stroke-dasharray: 1, 0;"/></marker><marker id="my-svg_flowchart-v2-crossEnd" class="marker cross flowchart-v2" viewBox="0 0 11 11" refX="12" refY="5.2" markerUnits="userSpaceOnUse" markerWidth="11" markerHeight="11" orient="auto"><path d="M 1,1 l 9,9 M 10,1 l -9,9" class="arrowMarkerPath" style="stroke-width: 2; stroke-dasharray: 1, 0;"/></marker><marker id="my-svg_flowchart-v2-crossStart" class="marker cross flowchart-v2" viewBox="0 0 11 11" refX="-1" refY="5.2" markerUnits="userSpaceOnUse" markerWidth="11" markerHeight="11" orient="auto"><path d="M 1,1 l 9,9 M 10,1 l -9,9" class="arrowMarkerPath" style="stroke-width: 2; stroke-dasharray: 1, 0;"/></marker><marker id="my-svg_flowchart-v2-crossEnd-margin" class="marker cross flowchart-v2" viewBox="0 0 15 15" refX="17.7" refY="7.5" markerUnits="userSpaceOnUse" markerWidth="12" markerHeight="12" orient="auto"><path d="M 1,1 L 14,14 M 1,14 L 14,1" class="arrowMarkerPath" style="stroke-width: 2.5;"/></marker><marker id="my-svg_flowchart-v2-crossStart-margin" class="marker cross flowchart-v2" viewBox="0 0 15 15" refX="-3.5" refY="7.5" markerUnits="userSpaceOnUse" markerWidth="12" markerHeight="12" orient="auto"><path d="M 1,1 L 14,14 M 1,14 L 14,1" class="arrowMarkerPath" style="stroke-width: 2.5; stroke-dasharray: 1, 0;"/></marker><g class="root"><g class="clusters"/><g class="edgePaths"><path d="M392.625,47.5L392.542,51.583C392.458,55.667,392.292,63.833,392.208,71.417C392.125,79,392.125,86,392.125,89.5L392.125,93" id="my-svg-L_start_validate_0" class="edge-thickness-normal edge-pattern-solid edge-thickness-normal edge-pattern-solid flowchart-link" style=";" data-edge="true" data-et="edge" data-id="L_start_validate_0" data-points="W3sieCI6MzkyLjYyNSwieSI6NDcuNX0seyJ4IjozOTIuMTI1LCJ5Ijo3Mn0seyJ4IjozOTIuMTI1LCJ5Ijo5N31d" data-look="classic" marker-end="url(#my-svg_flowchart-v2-pointEnd)"/><path d="M392.125,151L392.125,155.167C392.125,159.333,392.125,167.667,392.125,175.333C392.125,183,392.125,190,392.125,193.5L392.125,197" id="my-svg-L_validate_context_0" class="edge-thickness-normal edge-pattern-solid edge-thickness-normal edge-pattern-solid flowchart-link" style=";" data-edge="true" data-et="edge" data-id="L_validate_context_0" data-points="W3sieCI6MzkyLjEyNSwieSI6MTUxfSx7IngiOjM5Mi4xMjUsInkiOjE3Nn0seyJ4IjozOTIuMTI1LCJ5IjoyMDF9XQ==" data-look="classic" marker-end="url(#my-svg_flowchart-v2-pointEnd)"/><path d="M392.125,255L392.125,259.167C392.125,263.333,392.125,271.667,392.125,279.333C392.125,287,392.125,294,392.125,297.5L392.125,301" id="my-svg-L_context_analyze_0" class="edge-thickness-normal edge-pattern-solid edge-thickness-normal edge-pattern-solid flowchart-link" style=";" data-edge="true" data-et="edge" data-id="L_context_analyze_0" data-points="W3sieCI6MzkyLjEyNSwieSI6MjU1fSx7IngiOjM5Mi4xMjUsInkiOjI4MH0seyJ4IjozOTIuMTI1LCJ5IjozMDV9XQ==" data-look="classic" marker-end="url(#my-svg_flowchart-v2-pointEnd)"/><path d="M392.125,383L392.125,387.167C392.125,391.333,392.125,399.667,392.125,407.333C392.125,415,392.125,422,392.125,425.5L392.125,429" id="my-svg-L_analyze_draft_0" class="edge-thickness-normal edge-pattern-solid edge-thickness-normal edge-pattern-solid flowchart-link" style=";" data-edge="true" data-et="edge" data-id="L_analyze_draft_0" data-points="W3sieCI6MzkyLjEyNSwieSI6MzgzfSx7IngiOjM5Mi4xMjUsInkiOjQwOH0seyJ4IjozOTIuMTI1LCJ5Ijo0MzN9XQ==" data-look="classic" marker-end="url(#my-svg_flowchart-v2-pointEnd)"/><path d="M392.125,511L392.125,515.167C392.125,519.333,392.125,527.667,392.125,535.333C392.125,543,392.125,550,392.125,553.5L392.125,557" id="my-svg-L_draft_decision_0" class="edge-thickness-normal edge-pattern-solid edge-thickness-normal edge-pattern-solid flowchart-link" style=";" data-edge="true" data-et="edge" data-id="L_draft_decision_0" data-points="W3sieCI6MzkyLjEyNSwieSI6NTExfSx7IngiOjM5Mi4xMjUsInkiOjUzNn0seyJ4IjozOTIuMTI1LCJ5Ijo1NjF9XQ==" data-look="classic" marker-end="url(#my-svg_flowchart-v2-pointEnd)"/><path d="M333.128,673.691L297.969,689.69C262.809,705.69,192.491,737.689,157.331,761.188C122.172,784.688,122.172,799.688,122.172,807.188L122.172,814.688" id="my-svg-L_decision_fallback_0" class="edge-thickness-normal edge-pattern-solid edge-thickness-normal edge-pattern-solid flowchart-link" style=";" data-edge="true" data-et="edge" data-id="L_decision_fallback_0" data-points="W3sieCI6MzMzLjEyODEyMzg4MTIyMDQsInkiOjY3My42OTA2MjM4ODEyMjA0fSx7IngiOjEyMi4xNzE4NzUsInkiOjc2OS42ODc1fSx7IngiOjEyMi4xNzE4NzUsInkiOjgxOC42ODc1fV0=" data-look="classic" marker-end="url(#my-svg_flowchart-v2-pointEnd)"/><path d="M392.125,732.688L392.125,738.854C392.125,745.021,392.125,757.354,392.125,771.021C392.125,784.688,392.125,799.688,392.125,807.188L392.125,814.688" id="my-svg-L_decision_llm_0" class="edge-thickness-normal edge-pattern-solid edge-thickness-normal edge-pattern-solid flowchart-link" style=";" data-edge="true" data-et="edge" data-id="L_decision_llm_0" data-points="W3sieCI6MzkyLjEyNSwieSI6NzMyLjY4NzV9LHsieCI6MzkyLjEyNSwieSI6NzY5LjY4NzV9LHsieCI6MzkyLjEyNSwieSI6ODE4LjY4NzV9XQ==" data-look="classic" marker-end="url(#my-svg_flowchart-v2-pointEnd)"/><path d="M449.475,675.337L481.126,691.062C512.776,706.787,576.078,738.237,607.728,759.462C639.379,780.688,639.379,791.688,639.379,797.188L639.379,802.688" id="my-svg-L_decision_error_0" class="edge-thickness-normal edge-pattern-solid edge-thickness-normal edge-pattern-solid flowchart-link" style=";" data-edge="true" data-et="edge" data-id="L_decision_error_0" data-points="W3sieCI6NDQ5LjQ3NTI3NTQxMDMxMTksInkiOjY3NS4zMzcyMjQ1ODk2ODgyfSx7IngiOjYzOS4zNzg5MDYyNSwieSI6NzY5LjY4NzV9LHsieCI6NjM5LjM3ODkwNjI1LCJ5Ijo4MDYuNjg3NX1d" data-look="classic" marker-end="url(#my-svg_flowchart-v2-pointEnd)"/><path d="M122.172,872.688L122.172,878.854C122.172,885.021,122.172,897.354,132.365,907.448C142.559,917.542,162.945,925.396,173.139,929.323L183.332,933.25" id="my-svg-L_fallback_markdown_0" class="edge-thickness-normal edge-pattern-solid edge-thickness-normal edge-pattern-solid flowchart-link" style=";" data-edge="true" data-et="edge" data-id="L_fallback_markdown_0" data-points="W3sieCI6MTIyLjE3MTg3NSwieSI6ODcyLjY4NzV9LHsieCI6MTIyLjE3MTg3NSwieSI6OTA5LjY4NzV9LHsieCI6MTg3LjA2NDQ1MzEyNSwieSI6OTM0LjY4NzV9XQ==" data-look="classic" marker-end="url(#my-svg_flowchart-v2-pointEnd)"/><path d="M392.125,872.688L392.125,878.854C392.125,885.021,392.125,897.354,381.932,907.448C371.738,917.542,351.352,925.396,341.158,929.323L330.965,933.25" id="my-svg-L_llm_markdown_0" class="edge-thickness-normal edge-pattern-solid edge-thickness-normal edge-pattern-solid flowchart-link" style=";" data-edge="true" data-et="edge" data-id="L_llm_markdown_0" data-points="W3sieCI6MzkyLjEyNSwieSI6ODcyLjY4NzV9LHsieCI6MzkyLjEyNSwieSI6OTA5LjY4NzV9LHsieCI6MzI3LjIzMjQyMTg3NSwieSI6OTM0LjY4NzV9XQ==" data-look="classic" marker-end="url(#my-svg_flowchart-v2-pointEnd)"/><path d="M639.379,884.688L639.379,888.854C639.379,893.021,639.379,901.354,639.379,909.021C639.379,916.688,639.379,923.688,639.379,927.188L639.379,930.688" id="my-svg-L_error_stderr_0" class="edge-thickness-normal edge-pattern-solid edge-thickness-normal edge-pattern-solid flowchart-link" style=";" data-edge="true" data-et="edge" data-id="L_error_stderr_0" data-points="W3sieCI6NjM5LjM3ODkwNjI1LCJ5Ijo4ODQuNjg3NX0seyJ4Ijo2MzkuMzc4OTA2MjUsInkiOjkwOS42ODc1fSx7IngiOjYzOS4zNzg5MDYyNSwieSI6OTM0LjY4NzV9XQ==" data-look="classic" marker-end="url(#my-svg_flowchart-v2-pointEnd)"/></g><g class="edgeLabels"><g class="edgeLabel"><g class="label" data-id="L_start_validate_0" transform="translate(0, 0)"><foreignObject width="0" height="0"><div xmlns="http://www.w3.org/1999/xhtml" class="labelBkg" style="display: table-cell; white-space: nowrap; line-height: 1.5; max-width: 200px; text-align: center;"><span class="edgeLabel"></span></div></foreignObject></g></g><g class="edgeLabel"><g class="label" data-id="L_validate_context_0" transform="translate(0, 0)"><foreignObject width="0" height="0"><div xmlns="http://www.w3.org/1999/xhtml" class="labelBkg" style="display: table-cell; white-space: nowrap; line-height: 1.5; max-width: 200px; text-align: center;"><span class="edgeLabel"></span></div></foreignObject></g></g><g class="edgeLabel"><g class="label" data-id="L_context_analyze_0" transform="translate(0, 0)"><foreignObject width="0" height="0"><div xmlns="http://www.w3.org/1999/xhtml" class="labelBkg" style="display: table-cell; white-space: nowrap; line-height: 1.5; max-width: 200px; text-align: center;"><span class="edgeLabel"></span></div></foreignObject></g></g><g class="edgeLabel"><g class="label" data-id="L_analyze_draft_0" transform="translate(0, 0)"><foreignObject width="0" height="0"><div xmlns="http://www.w3.org/1999/xhtml" class="labelBkg" style="display: table-cell; white-space: nowrap; line-height: 1.5; max-width: 200px; text-align: center;"><span class="edgeLabel"></span></div></foreignObject></g></g><g class="edgeLabel"><g class="label" data-id="L_draft_decision_0" transform="translate(0, 0)"><foreignObject width="0" height="0"><div xmlns="http://www.w3.org/1999/xhtml" class="labelBkg" style="display: table-cell; white-space: nowrap; line-height: 1.5; max-width: 200px; text-align: center;"><span class="edgeLabel"></span></div></foreignObject></g></g><g class="edgeLabel" transform="translate(122.171875, 769.6875)"><g class="label" data-id="L_decision_fallback_0" transform="translate(-28.0859375, -12)"><foreignObject width="56.171875" height="24"><div xmlns="http://www.w3.org/1999/xhtml" class="labelBkg" style="display: table-cell; white-space: nowrap; line-height: 1.5; max-width: 200px; text-align: center;"><span class="edgeLabel"><p>ausente</p></span></div></foreignObject></g></g><g class="edgeLabel" transform="translate(392.125, 769.6875)"><g class="label" data-id="L_decision_llm_0" transform="translate(-21.421875, -12)"><foreignObject width="42.84375" height="24"><div xmlns="http://www.w3.org/1999/xhtml" class="labelBkg" style="display: table-cell; white-space: nowrap; line-height: 1.5; max-width: 200px; text-align: center;"><span class="edgeLabel"><p>válida</p></span></div></foreignObject></g></g><g class="edgeLabel" transform="translate(639.37890625, 769.6875)"><g class="label" data-id="L_decision_error_0" transform="translate(-28.078125, -12)"><foreignObject width="56.15625" height="24"><div xmlns="http://www.w3.org/1999/xhtml" class="labelBkg" style="display: table-cell; white-space: nowrap; line-height: 1.5; max-width: 200px; text-align: center;"><span class="edgeLabel"><p>inválida</p></span></div></foreignObject></g></g><g class="edgeLabel"><g class="label" data-id="L_fallback_markdown_0" transform="translate(0, 0)"><foreignObject width="0" height="0"><div xmlns="http://www.w3.org/1999/xhtml" class="labelBkg" style="display: table-cell; white-space: nowrap; line-height: 1.5; max-width: 200px; text-align: center;"><span class="edgeLabel"></span></div></foreignObject></g></g><g class="edgeLabel"><g class="label" data-id="L_llm_markdown_0" transform="translate(0, 0)"><foreignObject width="0" height="0"><div xmlns="http://www.w3.org/1999/xhtml" class="labelBkg" style="display: table-cell; white-space: nowrap; line-height: 1.5; max-width: 200px; text-align: center;"><span class="edgeLabel"></span></div></foreignObject></g></g><g class="edgeLabel"><g class="label" data-id="L_error_stderr_0" transform="translate(0, 0)"><foreignObject width="0" height="0"><div xmlns="http://www.w3.org/1999/xhtml" class="labelBkg" style="display: table-cell; white-space: nowrap; line-height: 1.5; max-width: 200px; text-align: center;"><span class="edgeLabel"></span></div></foreignObject></g></g></g><g class="nodes"><g class="node default startClass" id="my-svg-flowchart-start-0" data-look="classic" transform="translate(392.125, 27.5)"><g class="basic label-container outer-path"><path d="M-20.6796875 -19.5 C-4.962462760763419 -19.5, 10.754761978473162 -19.5, 20.6796875 -19.5 C20.6796875 -19.5, 20.6796875 -19.5, 20.6796875 -19.5 C21.04802479097798 -19.48818814000338, 21.41636208195596 -19.47637628000676, 21.9290567896239 -19.45993515863156 C22.40996620743567 -19.41354240547345, 22.890875625247443 -19.367149652315344, 23.173292152847864 -19.3399052695533 C23.54575183162376 -19.27968887715676, 23.918211510399658 -19.219472484760225, 24.40728075967676 -19.140403561325776 C24.754705869165115 -19.061106047245776, 25.102130978653474 -18.981808533165776, 25.62595188623539 -18.862249829261074 C25.986311342196068 -18.755297034297328, 26.346670798156747 -18.648344239333586, 26.824297751460602 -18.50658706670804 C27.083959131399716 -18.41102927860696, 27.34362051133883 -18.31547149050588, 27.997394095147794 -18.074876768247425 C28.42365343782568 -17.886184401778063, 28.84991278050357 -17.697492035308702, 29.14042041279238 -17.568892924097174 C29.464380893055868 -17.399882949050305, 29.788341373319355 -17.230872974003436, 30.248679764076783 -16.990714730406097 C30.463219398948542 -16.860659542971998, 30.677759033820305 -16.730604355537896, 31.317618073605697 -16.342718045390892 C31.58279736616089 -16.157740450330948, 31.847976658716085 -15.972762855271005, 32.34284284457871 -15.627565626425154 C32.59040555755371 -15.430140950748061, 32.837968270528705 -15.232716275070969, 33.320141208501866 -14.848196188198123 C33.688171007137925 -14.513961262611732, 34.056200805773976 -14.17972633702534, 34.24549723676799 -14.007812326905688 C34.508265040817165 -13.736482995586982, 34.77103284486635 -13.465153664268277, 35.11510844296865 -13.10986736009568 C35.29617631398349 -12.897174735747916, 35.477244184998334 -12.68448211140015, 35.92540140812658 -12.158051136245305 C36.11709587184475 -11.901198018587872, 36.30879033556291 -11.644344900930438, 36.673046464640635 -11.156274872382312 C36.82416655068 -10.924113838800817, 36.97528663671935 -10.691952805219325, 37.35497137860425 -10.108655082055241 C37.51107248070255 -9.831481768329073, 37.66717358280085 -9.554308454602907, 37.968373974273504 -9.019496659696287 C38.09778682291742 -8.750768110495812, 38.22719967156134 -8.482039561295338, 38.51073364880834 -7.893275190886684 C38.69125229942491 -7.447390633773071, 38.87177095004149 -7.001506076659457, 38.979821729970325 -6.734618561215508 C39.13214788406496 -6.275836454959189, 39.28447403815961 -5.817054348702871, 39.37371063421488 -5.548287939305138 C39.4835889926268 -5.1292741370987285, 39.59346735103871 -4.710260334892318, 39.69078178754556 -4.339158212148133 C39.76268898024109 -3.9699299752471626, 39.834596172936614 -3.600701738346192, 39.929732276581774 -3.1121979531509023 C39.982680038941666 -2.7015455640058796, 40.03562780130156 -2.2908931748608565, 40.08958020250937 -1.872449005199798 C40.121448685014634 -1.3760716664042363, 40.153317167519894 -0.8796943276086746, 40.16966871591342 -0.6250057626472757 C40.16966871591342 -0.2802275200739383, 40.16966871591342 0.06455072249939908, 40.16966871591342 0.625005762647271 C40.138699808659766 1.1073714907748524, 40.10773090140612 1.589737218902434, 40.08958020250937 1.8724490051997846 C40.046513079901935 2.206469103577747, 40.003445957294495 2.54048920195571, 39.929732276581774 3.1121979531508885 C39.83679691053279 3.5894014159158765, 39.7438615444838 4.066604878680865, 39.69078178754556 4.339158212148129 C39.619693245405294 4.610249633298036, 39.54860470326502 4.881341054447944, 39.37371063421489 5.548287939305125 C39.250427818213744 5.919596138651332, 39.1271450022126 6.290904337997539, 38.979821729970325 6.734618561215495 C38.834700678522275 7.093070364016841, 38.689579627074224 7.451522166818186, 38.51073364880834 7.893275190886679 C38.393198832683645 8.137338751411805, 38.27566401655895 8.381402311936931, 37.968373974273504 9.019496659696284 C37.83892515591777 9.249346144801141, 37.70947633756204 9.479195629905998, 37.35497137860425 10.108655082055236 C37.15814549882667 10.41103248854273, 36.9613196190491 10.713409895030225, 36.67304646464064 11.156274872382301 C36.39092152631687 11.53429658762553, 36.108796587993105 11.912318302868758, 35.92540140812658 12.158051136245302 C35.75307561328232 12.360474820484878, 35.580749818438065 12.562898504724455, 35.11510844296866 13.10986736009567 C34.84751908600905 13.38617534065125, 34.57992972904945 13.662483321206828, 34.24549723676799 14.007812326905684 C33.888649396097634 14.331892094126022, 33.531801555427286 14.65597186134636, 33.32014120850189 14.848196188198111 C33.053045008816824 15.06119829971857, 32.78594880913176 15.274200411239025, 32.34284284457871 15.627565626425152 C31.95943738932866 15.895012674652936, 31.576031934078603 16.16245972288072, 31.317618073605708 16.34271804539089 C30.99534138231133 16.5380840695616, 30.673064691016954 16.73345009373231, 30.248679764076787 16.990714730406093 C29.82564539154832 17.211411491587747, 29.402611019019854 17.4321082527694, 29.140420412792388 17.56889292409717 C28.82924452494407 17.706641258942874, 28.518068637095755 17.84438959378858, 27.997394095147804 18.07487676824742 C27.636662650117785 18.207629274583393, 27.275931205087765 18.340381780919362, 26.824297751460616 18.506587066708033 C26.499628661067515 18.602947148513874, 26.174959570674414 18.699307230319715, 25.625951886235413 18.86224982926107 C25.377769461377632 18.918895848193184, 25.12958703651985 18.975541867125294, 24.407280759676766 19.140403561325773 C24.024856038689705 19.202231024466958, 23.64243131770264 19.26405848760814, 23.17329215284788 19.3399052695533 C22.77044436493807 19.37876751115761, 22.367596577028262 19.41762975276192, 21.9290567896239 19.45993515863156 C21.487427878521856 19.474097338232074, 21.045798967419813 19.48825951783259, 20.679687500000004 19.5 C20.679687500000004 19.5, 20.6796875 19.5, 20.6796875 19.5 C6.052810374305867 19.5, -8.574066751388266 19.5, -20.679687499999996 19.5 C-21.0316794653468 19.488712302782126, -21.38367143069361 19.477424605564252, -21.929056789623893 19.45993515863156 C-22.3367619401834 19.420604333094264, -22.74446709074291 19.381273507556973, -23.17329215284787 19.3399052695533 C-23.458730940906072 19.29375773991091, -23.744169728964273 19.247610210268522, -24.40728075967676 19.140403561325773 C-24.853389234006826 19.03858221318979, -25.299497708336894 18.936760865053806, -25.625951886235388 18.862249829261074 C-26.029942137575514 18.742347643251428, -26.43393238891564 18.62244545724178, -26.82429775146059 18.506587066708043 C-27.195580748238232 18.369951491791472, -27.566863745015876 18.2333159168749, -27.997394095147797 18.074876768247425 C-28.350323548197398 17.918645368662617, -28.703253001247 17.76241396907781, -29.14042041279238 17.568892924097174 C-29.484498298791998 17.38938771136358, -29.82857618479161 17.209882498629984, -30.24867976407678 16.990714730406097 C-30.551588123731168 16.8070899026965, -30.854496483385553 16.6234650749869, -31.317618073605686 16.3427180453909 C-31.54017146778034 16.18747443179582, -31.762724861954993 16.03223081820074, -32.34284284457871 15.627565626425156 C-32.656628413217454 15.377329985620426, -32.97041398185619 15.127094344815696, -33.320141208501866 14.848196188198125 C-33.62379133418958 14.572429178190607, -33.92744145987731 14.29666216818309, -34.245497236767974 14.007812326905697 C-34.4324639950368 13.814753798736811, -34.619430753305615 13.621695270567924, -35.115108442968655 13.109867360095677 C-35.32696228061356 12.861011787573114, -35.53881611825846 12.612156215050549, -35.925401408126575 12.158051136245307 C-36.14405414755402 11.86507638508688, -36.362706886981464 11.572101633928453, -36.673046464640635 11.156274872382316 C-36.82721304434553 10.919433606432467, -36.981379624050426 10.68259234048262, -37.35497137860425 10.108655082055249 C-37.493086260823446 9.863418123026687, -37.631201143042645 9.618181163998127, -37.968373974273504 9.019496659696289 C-38.12537745438111 8.693475573916531, -38.28238093448871 8.367454488136774, -38.51073364880834 7.893275190886686 C-38.671145370034395 7.497055138108682, -38.83155709126045 7.1008350853306785, -38.979821729970325 6.73461856121551 C-39.063502902165695 6.482584203347223, -39.14718407436106 6.230549845478936, -39.37371063421488 5.5482879393051325 C-39.487064384565116 5.116020961393511, -39.60041813491536 4.68375398348189, -39.69078178754556 4.339158212148136 C-39.76292886048874 3.968698240874147, -39.83507593343193 3.598238269600159, -39.929732276581774 3.112197953150904 C-39.9900529144926 2.6443629971718123, -40.05037355240343 2.1765280411927206, -40.08958020250937 1.872449005199809 C-40.11014386030754 1.552153436307489, -40.13070751810571 1.2318578674151686, -40.16966871591342 0.6250057626472781 C-40.16966871591342 0.3582003444655783, -40.16966871591342 0.09139492628387846, -40.16966871591342 -0.6250057626472687 C-40.13811270973613 -1.1165160304082922, -40.10655670355884 -1.6080262981693156, -40.08958020250937 -1.8724490051997822 C-40.052644271239686 -2.158916794302804, -40.015708339970004 -2.4453845834058257, -39.929732276581774 -3.112197953150895 C-39.86724262839809 -3.433069089382314, -39.804752980214396 -3.753940225613733, -39.69078178754556 -4.339158212148126 C-39.57122488970955 -4.79508047988415, -39.451667991873535 -5.251002747620173, -39.37371063421489 -5.548287939305123 C-39.27607761355034 -5.842343041837397, -39.178444592885796 -6.1363981443696725, -38.97982172997033 -6.734618561215485 C-38.79348492985646 -7.194874060073693, -38.60714812974259 -7.655129558931902, -38.51073364880834 -7.893275190886676 C-38.30354661425911 -8.323503501220525, -38.09635957970988 -8.753731811554374, -37.968373974273504 -9.019496659696282 C-37.73957487633365 -9.425752626509457, -37.51077577839379 -9.832008593322632, -37.35497137860425 -10.108655082055243 C-37.09919799681125 -10.501591681259072, -36.84342461501826 -10.8945282804629, -36.67304646464064 -11.156274872382308 C-36.48707385602679 -11.405461225471687, -36.30110124741294 -11.654647578561065, -35.92540140812659 -12.158051136245302 C-35.731445550913755 -12.385882722528416, -35.53748969370093 -12.613714308811533, -35.11510844296866 -13.10986736009567 C-34.84210036719088 -13.391770612716101, -34.5690922914131 -13.673673865336532, -34.245497236767996 -14.007812326905677 C-34.00744403437485 -14.224005946776549, -33.769390831981696 -14.44019956664742, -33.32014120850189 -14.848196188198107 C-33.03679246330708 -15.074159272264186, -32.75344371811228 -15.300122356330265, -32.34284284457872 -15.627565626425149 C-32.01464753425445 -15.856500467561355, -31.686452223930186 -16.085435308697562, -31.31761807360571 -16.342718045390885 C-31.009373536041295 -16.529577695508404, -30.70112899847688 -16.716437345625923, -30.24867976407679 -16.99071473040609 C-29.969975503424457 -17.136114564669814, -29.691271242772125 -17.281514398933535, -29.140420412792388 -17.56889292409717 C-28.76376736763628 -17.735626054172172, -28.387114322480173 -17.902359184247175, -27.997394095147804 -18.07487676824742 C-27.694901922289954 -18.186196684066104, -27.392409749432105 -18.297516599884784, -26.82429775146062 -18.506587066708033 C-26.504816791454203 -18.60140733864816, -26.185335831447784 -18.69622761058828, -25.625951886235413 -18.862249829261067 C-25.18831625521014 -18.962137306203203, -24.750680624184866 -19.062024783145336, -24.407280759676766 -19.140403561325773 C-23.97988979474702 -19.20950081806918, -23.552498829817278 -19.278598074812585, -23.173292152847882 -19.3399052695533 C-22.92223309040071 -19.36412463536488, -22.671174027953533 -19.38834400117646, -21.929056789623903 -19.45993515863156 C-21.67733058189276 -19.468007528158157, -21.425604374161622 -19.476079897684755, -20.679687500000007 -19.5 C-20.679687500000004 -19.5, -20.679687500000004 -19.5, -20.6796875 -19.5" stroke="none" stroke-width="0" fill="#dbeafe" style="fill:#dbeafe !important;stroke:#2457d6 !important"/><path d="M-20.6796875 -19.5 C-6.71920835852521 -19.5, 7.241270782949581 -19.5, 20.6796875 -19.5 M-20.6796875 -19.5 C-9.865220130177935 -19.5, 0.94924723964413 -19.5, 20.6796875 -19.5 M20.6796875 -19.5 C20.6796875 -19.5, 20.6796875 -19.5, 20.6796875 -19.5 M20.6796875 -19.5 C20.6796875 -19.5, 20.6796875 -19.5, 20.6796875 -19.5 M20.6796875 -19.5 C21.02884797197821 -19.48880310326329, 21.37800844395642 -19.477606206526577, 21.9290567896239 -19.45993515863156 M20.6796875 -19.5 C21.137394106989582 -19.48532223998571, 21.595100713979168 -19.47064447997142, 21.9290567896239 -19.45993515863156 M21.9290567896239 -19.45993515863156 C22.38631263866442 -19.415824236805236, 22.843568487704943 -19.371713314978912, 23.173292152847864 -19.3399052695533 M21.9290567896239 -19.45993515863156 C22.247503565651172 -19.42921498113649, 22.565950341678448 -19.39849480364142, 23.173292152847864 -19.3399052695533 M23.173292152847864 -19.3399052695533 C23.480142859181353 -19.29029602701607, 23.786993565514845 -19.24068678447884, 24.40728075967676 -19.140403561325776 M23.173292152847864 -19.3399052695533 C23.488768920717337 -19.288901432283037, 23.804245688586814 -19.237897595012775, 24.40728075967676 -19.140403561325776 M24.40728075967676 -19.140403561325776 C24.826484044768918 -19.044723147060576, 25.245687329861077 -18.949042732795377, 25.62595188623539 -18.862249829261074 M24.40728075967676 -19.140403561325776 C24.868235171388307 -19.035193724861266, 25.329189583099854 -18.92998388839675, 25.62595188623539 -18.862249829261074 M25.62595188623539 -18.862249829261074 C25.885944970266493 -18.78508524665219, 26.145938054297595 -18.707920664043307, 26.824297751460602 -18.50658706670804 M25.62595188623539 -18.862249829261074 C25.990448385544695 -18.75406918154724, 26.354944884854 -18.645888533833407, 26.824297751460602 -18.50658706670804 M26.824297751460602 -18.50658706670804 C27.184533892348774 -18.37401683687481, 27.544770033236947 -18.241446607041578, 27.997394095147794 -18.074876768247425 M26.824297751460602 -18.50658706670804 C27.11643259814758 -18.39907874266231, 27.408567444834556 -18.291570418616583, 27.997394095147794 -18.074876768247425 M27.997394095147794 -18.074876768247425 C28.361059242774715 -17.9138929951363, 28.724724390401636 -17.752909222025178, 29.14042041279238 -17.568892924097174 M27.997394095147794 -18.074876768247425 C28.394406375235484 -17.899131208803457, 28.791418655323177 -17.72338564935949, 29.14042041279238 -17.568892924097174 M29.14042041279238 -17.568892924097174 C29.405661061177526 -17.43051704772939, 29.67090170956267 -17.292141171361603, 30.248679764076783 -16.990714730406097 M29.14042041279238 -17.568892924097174 C29.47337484668898 -17.395190809200813, 29.806329280585576 -17.22148869430445, 30.248679764076783 -16.990714730406097 M30.248679764076783 -16.990714730406097 C30.57334998509136 -16.793897734453058, 30.898020206105944 -16.59708073850002, 31.317618073605697 -16.342718045390892 M30.248679764076783 -16.990714730406097 C30.62335988394014 -16.76358143988014, 30.998040003803492 -16.53644814935419, 31.317618073605697 -16.342718045390892 M31.317618073605697 -16.342718045390892 C31.578211998538123 -16.160939004287226, 31.83880592347055 -15.97915996318356, 32.34284284457871 -15.627565626425154 M31.317618073605697 -16.342718045390892 C31.55978756625489 -16.17379109066719, 31.801957058904087 -16.004864135943485, 32.34284284457871 -15.627565626425154 M32.34284284457871 -15.627565626425154 C32.56805336389931 -15.447966230370588, 32.793263883219915 -15.268366834316021, 33.320141208501866 -14.848196188198123 M32.34284284457871 -15.627565626425154 C32.55586036618718 -15.457689821576716, 32.76887788779565 -15.28781401672828, 33.320141208501866 -14.848196188198123 M33.320141208501866 -14.848196188198123 C33.52597106450151 -14.66126695893881, 33.73180092050115 -14.474337729679497, 34.24549723676799 -14.007812326905688 M33.320141208501866 -14.848196188198123 C33.52521843349063 -14.661950478509365, 33.73029565847939 -14.475704768820608, 34.24549723676799 -14.007812326905688 M34.24549723676799 -14.007812326905688 C34.448536935007056 -13.79815716860461, 34.65157663324612 -13.58850201030353, 35.11510844296865 -13.10986736009568 M34.24549723676799 -14.007812326905688 C34.491647782101396 -13.753641679513327, 34.73779832743481 -13.499471032120967, 35.11510844296865 -13.10986736009568 M35.11510844296865 -13.10986736009568 C35.29480434277603 -12.898786331195572, 35.47450024258341 -12.687705302295463, 35.92540140812658 -12.158051136245305 M35.11510844296865 -13.10986736009568 C35.33996361814604 -12.845739676710402, 35.56481879332342 -12.581611993325122, 35.92540140812658 -12.158051136245305 M35.92540140812658 -12.158051136245305 C36.21022818357766 -11.77640920539391, 36.495054959028735 -11.394767274542513, 36.673046464640635 -11.156274872382312 M35.92540140812658 -12.158051136245305 C36.09843032061537 -11.926208156768533, 36.27145923310417 -11.69436517729176, 36.673046464640635 -11.156274872382312 M36.673046464640635 -11.156274872382312 C36.916578912353884 -10.782143635076014, 37.16011136006714 -10.408012397769719, 37.35497137860425 -10.108655082055241 M36.673046464640635 -11.156274872382312 C36.924420126514356 -10.770097424464714, 37.17579378838808 -10.383919976547116, 37.35497137860425 -10.108655082055241 M37.35497137860425 -10.108655082055241 C37.56518198216865 -9.73540486929484, 37.77539258573306 -9.362154656534438, 37.968373974273504 -9.019496659696287 M37.35497137860425 -10.108655082055241 C37.56059199337096 -9.74355485919191, 37.76621260813767 -9.37845463632858, 37.968373974273504 -9.019496659696287 M37.968373974273504 -9.019496659696287 C38.093935036476914 -8.758766427454562, 38.21949609868032 -8.498036195212835, 38.51073364880834 -7.893275190886684 M37.968373974273504 -9.019496659696287 C38.12913439661983 -8.685674202972134, 38.289894818966154 -8.35185174624798, 38.51073364880834 -7.893275190886684 M38.51073364880834 -7.893275190886684 C38.624349240091504 -7.612642483809242, 38.737964831374676 -7.332009776731799, 38.979821729970325 -6.734618561215508 M38.51073364880834 -7.893275190886684 C38.64639188777958 -7.558196717854108, 38.78205012675081 -7.223118244821532, 38.979821729970325 -6.734618561215508 M38.979821729970325 -6.734618561215508 C39.11691399662565 -6.321718496736073, 39.25400626328097 -5.908818432256638, 39.37371063421488 -5.548287939305138 M38.979821729970325 -6.734618561215508 C39.09986477267683 -6.37306804284498, 39.21990781538333 -6.011517524474451, 39.37371063421488 -5.548287939305138 M39.37371063421488 -5.548287939305138 C39.46553820736827 -5.198109604549316, 39.55736578052166 -4.847931269793495, 39.69078178754556 -4.339158212148133 M39.37371063421488 -5.548287939305138 C39.49973432761912 -5.06770497734053, 39.62575802102337 -4.587122015375923, 39.69078178754556 -4.339158212148133 M39.69078178754556 -4.339158212148133 C39.75945539888337 -3.986533732101385, 39.828129010221176 -3.6339092520546368, 39.929732276581774 -3.1121979531509023 M39.69078178754556 -4.339158212148133 C39.76320418879931 -3.967284488190052, 39.83562659005306 -3.5954107642319713, 39.929732276581774 -3.1121979531509023 M39.929732276581774 -3.1121979531509023 C39.965230134135716 -2.836883579807402, 40.00072799168965 -2.5615692064639015, 40.08958020250937 -1.872449005199798 M39.929732276581774 -3.1121979531509023 C39.96173245633707 -2.8640108781190907, 39.99373263609236 -2.615823803087279, 40.08958020250937 -1.872449005199798 M40.08958020250937 -1.872449005199798 C40.11021876197964 -1.5509867823049812, 40.13085732144991 -1.2295245594101645, 40.16966871591342 -0.6250057626472757 M40.08958020250937 -1.872449005199798 C40.11446398535557 -1.4848640015422392, 40.139347768201766 -1.0972789978846804, 40.16966871591342 -0.6250057626472757 M40.16966871591342 -0.6250057626472757 C40.16966871591342 -0.35762335905808734, 40.16966871591342 -0.09024095546889899, 40.16966871591342 0.625005762647271 M40.16966871591342 -0.6250057626472757 C40.16966871591342 -0.23324906337341467, 40.16966871591342 0.15850763590044636, 40.16966871591342 0.625005762647271 M40.16966871591342 0.625005762647271 C40.14225899516871 1.0519342879744638, 40.114849274424 1.4788628133016564, 40.08958020250937 1.8724490051997846 M40.16966871591342 0.625005762647271 C40.141884651801554 1.0577649880823974, 40.11410058768969 1.4905242135175234, 40.08958020250937 1.8724490051997846 M40.08958020250937 1.8724490051997846 C40.044784189355205 2.219878037250102, 39.99998817620104 2.5673070693004196, 39.929732276581774 3.1121979531508885 M40.08958020250937 1.8724490051997846 C40.04298433183298 2.233837376770422, 39.99638846115659 2.595225748341059, 39.929732276581774 3.1121979531508885 M39.929732276581774 3.1121979531508885 C39.87285829280427 3.4042338395276714, 39.81598430902676 3.6962697259044544, 39.69078178754556 4.339158212148129 M39.929732276581774 3.1121979531508885 C39.86707450286272 3.43393237847308, 39.80441672914366 3.755666803795272, 39.69078178754556 4.339158212148129 M39.69078178754556 4.339158212148129 C39.598613597747985 4.690635465792442, 39.5064454079504 5.042112719436755, 39.37371063421489 5.548287939305125 M39.69078178754556 4.339158212148129 C39.584096499473006 4.745995453265117, 39.47741121140045 5.152832694382105, 39.37371063421489 5.548287939305125 M39.37371063421489 5.548287939305125 C39.22968032170228 5.982084292479211, 39.08565000918967 6.415880645653297, 38.979821729970325 6.734618561215495 M39.37371063421489 5.548287939305125 C39.22735556088331 5.989086101665615, 39.08100048755173 6.4298842640261045, 38.979821729970325 6.734618561215495 M38.979821729970325 6.734618561215495 C38.84899711251382 7.057757895654976, 38.71817249505732 7.380897230094457, 38.51073364880834 7.893275190886679 M38.979821729970325 6.734618561215495 C38.84858554927481 7.058774464812365, 38.71734936857929 7.3829303684092356, 38.51073364880834 7.893275190886679 M38.51073364880834 7.893275190886679 C38.338085710921334 8.251782327983136, 38.165437773034334 8.610289465079592, 37.968373974273504 9.019496659696284 M38.51073364880834 7.893275190886679 C38.35894371452112 8.208470237218414, 38.20715378023389 8.523665283550148, 37.968373974273504 9.019496659696284 M37.968373974273504 9.019496659696284 C37.73073781195385 9.441443729165593, 37.49310164963419 9.863390798634905, 37.35497137860425 10.108655082055236 M37.968373974273504 9.019496659696284 C37.800526944682986 9.317526057089012, 37.63267991509247 9.61555545448174, 37.35497137860425 10.108655082055236 M37.35497137860425 10.108655082055236 C37.16655301008803 10.398116293512405, 36.978134641571806 10.687577504969573, 36.67304646464064 11.156274872382301 M37.35497137860425 10.108655082055236 C37.14842529717066 10.425965328525976, 36.941879215737075 10.743275574996717, 36.67304646464064 11.156274872382301 M36.67304646464064 11.156274872382301 C36.50902785697828 11.376044864247321, 36.34500924931591 11.59581485611234, 35.92540140812658 12.158051136245302 M36.67304646464064 11.156274872382301 C36.39854739793123 11.524078614393487, 36.124048331221815 11.891882356404672, 35.92540140812658 12.158051136245302 M35.92540140812658 12.158051136245302 C35.60679335672924 12.532306282728324, 35.2881853053319 12.906561429211347, 35.11510844296866 13.10986736009567 M35.92540140812658 12.158051136245302 C35.719316527523326 12.400130163563793, 35.51323164692007 12.642209190882282, 35.11510844296866 13.10986736009567 M35.11510844296866 13.10986736009567 C34.91760682768857 13.31380399305654, 34.72010521240848 13.517740626017412, 34.24549723676799 14.007812326905684 M35.11510844296866 13.10986736009567 C34.917677946160886 13.313730557394935, 34.72024744935312 13.5175937546942, 34.24549723676799 14.007812326905684 M34.24549723676799 14.007812326905684 C34.014618412301175 14.217490366567496, 33.78373958783437 14.427168406229306, 33.32014120850189 14.848196188198111 M34.24549723676799 14.007812326905684 C33.881815062898035 14.338098854711355, 33.518132889028074 14.668385382517027, 33.32014120850189 14.848196188198111 M33.32014120850189 14.848196188198111 C33.08000606484174 15.039697575002533, 32.839870921181586 15.231198961806955, 32.34284284457871 15.627565626425152 M33.32014120850189 14.848196188198111 C33.02087433470294 15.086853556226801, 32.72160746090399 15.325510924255493, 32.34284284457871 15.627565626425152 M32.34284284457871 15.627565626425152 C32.11889874293113 15.78377933735059, 31.894954641283555 15.939993048276028, 31.317618073605708 16.34271804539089 M32.34284284457871 15.627565626425152 C32.06604822294558 15.820645572230372, 31.78925360131246 16.013725518035592, 31.317618073605708 16.34271804539089 M31.317618073605708 16.34271804539089 C31.00213683586077 16.53396462568541, 30.686655598115834 16.72521120597993, 30.248679764076787 16.990714730406093 M31.317618073605708 16.34271804539089 C31.06882534651444 16.493537658621968, 30.820032619423174 16.644357271853043, 30.248679764076787 16.990714730406093 M30.248679764076787 16.990714730406093 C29.808986876197242 17.220102228376117, 29.3692939883177 17.449489726346137, 29.140420412792388 17.56889292409717 M30.248679764076787 16.990714730406093 C29.842746010670012 17.20249010954543, 29.43681225726324 17.414265488684762, 29.140420412792388 17.56889292409717 M29.140420412792388 17.56889292409717 C28.905741290942093 17.672778409831487, 28.671062169091798 17.776663895565807, 27.997394095147804 18.07487676824742 M29.140420412792388 17.56889292409717 C28.885206954965746 17.681868351238784, 28.629993497139104 17.794843778380397, 27.997394095147804 18.07487676824742 M27.997394095147804 18.07487676824742 C27.710940114734704 18.18029448099101, 27.424486134321604 18.285712193734597, 26.824297751460616 18.506587066708033 M27.997394095147804 18.07487676824742 C27.556800807225105 18.237019171002682, 27.116207519302403 18.39916157375794, 26.824297751460616 18.506587066708033 M26.824297751460616 18.506587066708033 C26.580194658349907 18.57903558342001, 26.336091565239197 18.651484100131984, 25.625951886235413 18.86224982926107 M26.824297751460616 18.506587066708033 C26.52260059050041 18.59612920044031, 26.220903429540204 18.685671334172586, 25.625951886235413 18.86224982926107 M25.625951886235413 18.86224982926107 C25.259372735267835 18.945919128316902, 24.892793584300257 19.029588427372733, 24.407280759676766 19.140403561325773 M25.625951886235413 18.86224982926107 C25.319057526930685 18.932296464099522, 25.012163167625953 19.00234309893797, 24.407280759676766 19.140403561325773 M24.407280759676766 19.140403561325773 C24.11048817278815 19.188386685113038, 23.813695585899534 19.236369808900303, 23.17329215284788 19.3399052695533 M24.407280759676766 19.140403561325773 C23.959714341437394 19.212762628897302, 23.512147923198018 19.285121696468835, 23.17329215284788 19.3399052695533 M23.17329215284788 19.3399052695533 C22.87092270578894 19.36907448645861, 22.56855325873 19.39824370336392, 21.9290567896239 19.45993515863156 M23.17329215284788 19.3399052695533 C22.85366073798729 19.37073972773188, 22.534029323126706 19.401574185910466, 21.9290567896239 19.45993515863156 M21.9290567896239 19.45993515863156 C21.521135399177677 19.473016403652352, 21.113214008731454 19.48609764867314, 20.679687500000004 19.5 M21.9290567896239 19.45993515863156 C21.671070007211295 19.46820829260272, 21.413083224798694 19.476481426573887, 20.679687500000004 19.5 M20.679687500000004 19.5 C20.679687500000004 19.5, 20.6796875 19.5, 20.6796875 19.5 M20.679687500000004 19.5 C20.679687500000004 19.5, 20.6796875 19.5, 20.6796875 19.5 M20.6796875 19.5 C11.918067379389925 19.5, 3.156447258779849 19.5, -20.679687499999996 19.5 M20.6796875 19.5 C6.548236783161508 19.5, -7.5832139336769835 19.5, -20.679687499999996 19.5 M-20.679687499999996 19.5 C-21.025216174562342 19.48891956793755, -21.37074484912469 19.4778391358751, -21.929056789623893 19.45993515863156 M-20.679687499999996 19.5 C-20.941448146156095 19.491605845563964, -21.203208792312196 19.483211691127927, -21.929056789623893 19.45993515863156 M-21.929056789623893 19.45993515863156 C-22.184084301659375 19.435332961260954, -22.439111813694858 19.41073076389035, -23.17329215284787 19.3399052695533 M-21.929056789623893 19.45993515863156 C-22.22768638215531 19.431126720994683, -22.526315974686725 19.40231828335781, -23.17329215284787 19.3399052695533 M-23.17329215284787 19.3399052695533 C-23.495763262403937 19.287770641361078, -23.81823437196 19.235636013168858, -24.40728075967676 19.140403561325773 M-23.17329215284787 19.3399052695533 C-23.57173459218925 19.27548818592785, -23.970177031530632 19.2110711023024, -24.40728075967676 19.140403561325773 M-24.40728075967676 19.140403561325773 C-24.80985162698089 19.04851938788402, -25.212422494285022 18.956635214442272, -25.625951886235388 18.862249829261074 M-24.40728075967676 19.140403561325773 C-24.750567260305 19.062050657711147, -25.093853760933243 18.98369775409652, -25.625951886235388 18.862249829261074 M-25.625951886235388 18.862249829261074 C-26.02813517069293 18.742883941537215, -26.430318455150474 18.62351805381336, -26.82429775146059 18.506587066708043 M-25.625951886235388 18.862249829261074 C-25.933400563769208 18.771000675600078, -26.240849241303025 18.67975152193908, -26.82429775146059 18.506587066708043 M-26.82429775146059 18.506587066708043 C-27.28298069368306 18.337787503951535, -27.741663635905535 18.168987941195027, -27.997394095147797 18.074876768247425 M-26.82429775146059 18.506587066708043 C-27.217448766730094 18.36190385884072, -27.610599781999596 18.2172206509734, -27.997394095147797 18.074876768247425 M-27.997394095147797 18.074876768247425 C-28.4310197157519 17.882923569053, -28.864645336356002 17.690970369858572, -29.14042041279238 17.568892924097174 M-27.997394095147797 18.074876768247425 C-28.283999094899055 17.94800523669279, -28.570604094650314 17.821133705138152, -29.14042041279238 17.568892924097174 M-29.14042041279238 17.568892924097174 C-29.536161669135378 17.362434964147404, -29.931902925478376 17.155977004197634, -30.24867976407678 16.990714730406097 M-29.14042041279238 17.568892924097174 C-29.520322203851666 17.370698403040254, -29.900223994910952 17.17250388198334, -30.24867976407678 16.990714730406097 M-30.24867976407678 16.990714730406097 C-30.54840167937833 16.809021543988816, -30.84812359467988 16.627328357571532, -31.317618073605686 16.3427180453909 M-30.24867976407678 16.990714730406097 C-30.545684200830262 16.81066889545433, -30.842688637583745 16.63062306050256, -31.317618073605686 16.3427180453909 M-31.317618073605686 16.3427180453909 C-31.636610078983466 16.12020303138071, -31.955602084361246 15.897688017370527, -32.34284284457871 15.627565626425156 M-31.317618073605686 16.3427180453909 C-31.709543606791833 16.06932775962313, -32.10146913997798 15.79593747385536, -32.34284284457871 15.627565626425156 M-32.34284284457871 15.627565626425156 C-32.721641676608414 15.325483638141732, -33.100440508638115 15.023401649858307, -33.320141208501866 14.848196188198125 M-32.34284284457871 15.627565626425156 C-32.5905199075203 15.430049759692682, -32.8381969704619 15.232533892960209, -33.320141208501866 14.848196188198125 M-33.320141208501866 14.848196188198125 C-33.6080305012694 14.586742749639937, -33.89591979403692 14.325289311081749, -34.245497236767974 14.007812326905697 M-33.320141208501866 14.848196188198125 C-33.59631497141943 14.597382483873739, -33.872488734337 14.346568779549353, -34.245497236767974 14.007812326905697 M-34.245497236767974 14.007812326905697 C-34.50744887476745 13.737325754041793, -34.76940051276692 13.466839181177887, -35.115108442968655 13.109867360095677 M-34.245497236767974 14.007812326905697 C-34.57712065603833 13.665383919719979, -34.9087440753087 13.322955512534262, -35.115108442968655 13.109867360095677 M-35.115108442968655 13.109867360095677 C-35.346732483594764 12.83778858219497, -35.57835652422087 12.565709804294261, -35.925401408126575 12.158051136245307 M-35.115108442968655 13.109867360095677 C-35.31937867281993 12.869919924807014, -35.523648902671205 12.629972489518352, -35.925401408126575 12.158051136245307 M-35.925401408126575 12.158051136245307 C-36.100853856854705 11.922960838996516, -36.276306305582835 11.687870541747724, -36.673046464640635 11.156274872382316 M-35.925401408126575 12.158051136245307 C-36.075076286483096 11.957500434909504, -36.22475116483961 11.756949733573702, -36.673046464640635 11.156274872382316 M-36.673046464640635 11.156274872382316 C-36.91374265247681 10.786500891889622, -37.15443884031299 10.41672691139693, -37.35497137860425 10.108655082055249 M-36.673046464640635 11.156274872382316 C-36.92278475001628 10.772609801925844, -37.17252303539192 10.388944731469373, -37.35497137860425 10.108655082055249 M-37.35497137860425 10.108655082055249 C-37.581619842718155 9.706217783375337, -37.808268306832055 9.303780484695425, -37.968373974273504 9.019496659696289 M-37.35497137860425 10.108655082055249 C-37.55253955178401 9.757852784627673, -37.750107724963776 9.407050487200097, -37.968373974273504 9.019496659696289 M-37.968373974273504 9.019496659696289 C-38.156021081221674 8.62984342711351, -38.34366818816985 8.240190194530733, -38.51073364880834 7.893275190886686 M-37.968373974273504 9.019496659696289 C-38.10189461731411 8.742238187538371, -38.23541526035471 8.464979715380455, -38.51073364880834 7.893275190886686 M-38.51073364880834 7.893275190886686 C-38.69377935958856 7.441148746311473, -38.87682507036879 6.98902230173626, -38.979821729970325 6.73461856121551 M-38.51073364880834 7.893275190886686 C-38.638613153156896 7.577410342763736, -38.76649265750545 7.261545494640786, -38.979821729970325 6.73461856121551 M-38.979821729970325 6.73461856121551 C-39.0947878693812 6.3883588666767235, -39.209754008792075 6.042099172137936, -39.37371063421488 5.5482879393051325 M-38.979821729970325 6.73461856121551 C-39.06440678816114 6.479861842743605, -39.14899184635196 6.2251051242717015, -39.37371063421488 5.5482879393051325 M-39.37371063421488 5.5482879393051325 C-39.462701098362935 5.208928730797458, -39.551691562510996 4.869569522289784, -39.69078178754556 4.339158212148136 M-39.37371063421488 5.5482879393051325 C-39.48817080426319 5.1118017035594265, -39.6026309743115 4.6753154678137205, -39.69078178754556 4.339158212148136 M-39.69078178754556 4.339158212148136 C-39.743436528826095 4.068787244256107, -39.79609127010663 3.798416276364078, -39.929732276581774 3.112197953150904 M-39.69078178754556 4.339158212148136 C-39.76547990198297 3.955599181964113, -39.84017801642038 3.57204015178009, -39.929732276581774 3.112197953150904 M-39.929732276581774 3.112197953150904 C-39.97734311482711 2.7429376935435323, -40.02495395307244 2.3736774339361606, -40.08958020250937 1.872449005199809 M-39.929732276581774 3.112197953150904 C-39.992510144272536 2.6253052082335073, -40.055288011963306 2.138412463316111, -40.08958020250937 1.872449005199809 M-40.08958020250937 1.872449005199809 C-40.11535276814433 1.471020492194786, -40.141125333779286 1.0695919791897628, -40.16966871591342 0.6250057626472781 M-40.08958020250937 1.872449005199809 C-40.112889469334085 1.5093883595033202, -40.136198736158796 1.1463277138068313, -40.16966871591342 0.6250057626472781 M-40.16966871591342 0.6250057626472781 C-40.16966871591342 0.32379074770629984, -40.16966871591342 0.022575732765321543, -40.16966871591342 -0.6250057626472687 M-40.16966871591342 0.6250057626472781 C-40.16966871591342 0.16554142366952201, -40.16966871591342 -0.2939229153082341, -40.16966871591342 -0.6250057626472687 M-40.16966871591342 -0.6250057626472687 C-40.144179278947796 -1.0220243180899813, -40.11868984198218 -1.4190428735326939, -40.08958020250937 -1.8724490051997822 M-40.16966871591342 -0.6250057626472687 C-40.146069598260496 -0.992581068956389, -40.12247048060758 -1.3601563752655093, -40.08958020250937 -1.8724490051997822 M-40.08958020250937 -1.8724490051997822 C-40.03986569818352 -2.258024883511777, -39.99015119385767 -2.643600761823772, -39.929732276581774 -3.112197953150895 M-40.08958020250937 -1.8724490051997822 C-40.042467154609554 -2.2378485011871185, -39.99535410670974 -2.6032479971744547, -39.929732276581774 -3.112197953150895 M-39.929732276581774 -3.112197953150895 C-39.8575236215285 -3.482974135544797, -39.785314966475234 -3.8537503179386996, -39.69078178754556 -4.339158212148126 M-39.929732276581774 -3.112197953150895 C-39.85788584377231 -3.481114200878545, -39.78603941096284 -3.850030448606195, -39.69078178754556 -4.339158212148126 M-39.69078178754556 -4.339158212148126 C-39.62127919601612 -4.604201716263613, -39.551776604486676 -4.869245220379099, -39.37371063421489 -5.548287939305123 M-39.69078178754556 -4.339158212148126 C-39.595301271061935 -4.703266803017797, -39.499820754578316 -5.067375393887469, -39.37371063421489 -5.548287939305123 M-39.37371063421489 -5.548287939305123 C-39.23512845644818 -5.965675378666944, -39.09654627868147 -6.383062818028765, -38.97982172997033 -6.734618561215485 M-39.37371063421489 -5.548287939305123 C-39.25434110956132 -5.907809928610758, -39.13497158490774 -6.267331917916393, -38.97982172997033 -6.734618561215485 M-38.97982172997033 -6.734618561215485 C-38.88069787089942 -6.979456409550087, -38.7815740118285 -7.224294257884689, -38.51073364880834 -7.893275190886676 M-38.97982172997033 -6.734618561215485 C-38.80360968039377 -7.169865730497811, -38.62739763081721 -7.605112899780138, -38.51073364880834 -7.893275190886676 M-38.51073364880834 -7.893275190886676 C-38.32748019926117 -8.273804899867072, -38.144226749713994 -8.654334608847469, -37.968373974273504 -9.019496659696282 M-38.51073364880834 -7.893275190886676 C-38.34514690696051 -8.2371196033224, -38.179560165112676 -8.580964015758125, -37.968373974273504 -9.019496659696282 M-37.968373974273504 -9.019496659696282 C-37.805276081634524 -9.309093483529299, -37.64217818899554 -9.598690307362316, -37.35497137860425 -10.108655082055243 M-37.968373974273504 -9.019496659696282 C-37.81704792708287 -9.288191379907152, -37.66572187989223 -9.556886100118023, -37.35497137860425 -10.108655082055243 M-37.35497137860425 -10.108655082055243 C-37.1935114446046 -10.356700898741678, -37.03205151060496 -10.604746715428112, -36.67304646464064 -11.156274872382308 M-37.35497137860425 -10.108655082055243 C-37.19028515695355 -10.361657342953237, -37.02559893530285 -10.61465960385123, -36.67304646464064 -11.156274872382308 M-36.67304646464064 -11.156274872382308 C-36.46588012180886 -11.433858898534806, -36.258713778977075 -11.711442924687304, -35.92540140812659 -12.158051136245302 M-36.67304646464064 -11.156274872382308 C-36.41772368995316 -11.49838413008025, -36.16240091526568 -11.840493387778194, -35.92540140812659 -12.158051136245302 M-35.92540140812659 -12.158051136245302 C-35.71792456953128 -12.401765236625915, -35.510447730935965 -12.645479337006527, -35.11510844296866 -13.10986736009567 M-35.92540140812659 -12.158051136245302 C-35.66900237112169 -12.459232034629759, -35.4126033341168 -12.760412933014216, -35.11510844296866 -13.10986736009567 M-35.11510844296866 -13.10986736009567 C-34.80970064906081 -13.42522598175173, -34.504292855152954 -13.74058460340779, -34.245497236767996 -14.007812326905677 M-35.11510844296866 -13.10986736009567 C-34.914774544154106 -13.316728558340673, -34.71444064533956 -13.523589756585677, -34.245497236767996 -14.007812326905677 M-34.245497236767996 -14.007812326905677 C-33.879891246893784 -14.339846013505031, -33.51428525701957 -14.671879700104384, -33.32014120850189 -14.848196188198107 M-34.245497236767996 -14.007812326905677 C-33.96312969071321 -14.264251061196763, -33.68076214465843 -14.520689795487849, -33.32014120850189 -14.848196188198107 M-33.32014120850189 -14.848196188198107 C-33.04889315492751 -15.064509292709822, -32.77764510135314 -15.280822397221536, -32.34284284457872 -15.627565626425149 M-33.32014120850189 -14.848196188198107 C-33.00954921474754 -15.095885038017132, -32.69895722099319 -15.343573887836158, -32.34284284457872 -15.627565626425149 M-32.34284284457872 -15.627565626425149 C-32.08796293451695 -15.80535881811076, -31.83308302445519 -15.983152009796372, -31.31761807360571 -16.342718045390885 M-32.34284284457872 -15.627565626425149 C-31.933789016804525 -15.912903869025621, -31.524735189030327 -16.198242111626094, -31.31761807360571 -16.342718045390885 M-31.31761807360571 -16.342718045390885 C-31.083225018643272 -16.4848084927556, -30.84883196368083 -16.626898940120316, -30.24867976407679 -16.99071473040609 M-31.31761807360571 -16.342718045390885 C-30.90105048201432 -16.59524376743648, -30.48448289042293 -16.847769489482076, -30.24867976407679 -16.99071473040609 M-30.24867976407679 -16.99071473040609 C-30.011920158850664 -17.114232064800795, -29.775160553624534 -17.237749399195504, -29.140420412792388 -17.56889292409717 M-30.24867976407679 -16.99071473040609 C-29.87415905053737 -17.186101946767643, -29.499638336997943 -17.381489163129192, -29.140420412792388 -17.56889292409717 M-29.140420412792388 -17.56889292409717 C-28.71343287517202 -17.75790764086643, -28.286445337551655 -17.946922357635692, -27.997394095147804 -18.07487676824742 M-29.140420412792388 -17.56889292409717 C-28.90371497446173 -17.673675400028802, -28.66700953613108 -17.778457875960434, -27.997394095147804 -18.07487676824742 M-27.997394095147804 -18.07487676824742 C-27.668347286551725 -18.195969035486133, -27.339300477955646 -18.317061302724845, -26.82429775146062 -18.506587066708033 M-27.997394095147804 -18.07487676824742 C-27.658787965931392 -18.199486953839806, -27.32018183671498 -18.324097139432194, -26.82429775146062 -18.506587066708033 M-26.82429775146062 -18.506587066708033 C-26.547085587006272 -18.588862182001737, -26.269873422551925 -18.671137297295445, -25.625951886235413 -18.862249829261067 M-26.82429775146062 -18.506587066708033 C-26.528147641645024 -18.594482864777653, -26.23199753182943 -18.682378662847274, -25.625951886235413 -18.862249829261067 M-25.625951886235413 -18.862249829261067 C-25.139646543311052 -18.973245850344618, -24.653341200386688 -19.08424187142817, -24.407280759676766 -19.140403561325773 M-25.625951886235413 -18.862249829261067 C-25.245316044084838 -18.949127476350935, -24.864680201934263 -19.036005123440805, -24.407280759676766 -19.140403561325773 M-24.407280759676766 -19.140403561325773 C-24.09023797618824 -19.19166057985669, -23.773195192699717 -19.24291759838761, -23.173292152847882 -19.3399052695533 M-24.407280759676766 -19.140403561325773 C-23.960888519727362 -19.21257279685727, -23.51449627977796 -19.284742032388767, -23.173292152847882 -19.3399052695533 M-23.173292152847882 -19.3399052695533 C-22.73090051402685 -19.382582258896576, -22.28850887520582 -19.425259248239854, -21.929056789623903 -19.45993515863156 M-23.173292152847882 -19.3399052695533 C-22.72920690865921 -19.382745638969535, -22.285121664470537 -19.425586008385768, -21.929056789623903 -19.45993515863156 M-21.929056789623903 -19.45993515863156 C-21.536677243477897 -19.472518006956008, -21.14429769733189 -19.485100855280454, -20.679687500000007 -19.5 M-21.929056789623903 -19.45993515863156 C-21.569550767121836 -19.47146381703718, -21.210044744619765 -19.482992475442796, -20.679687500000007 -19.5 M-20.679687500000007 -19.5 C-20.679687500000004 -19.5, -20.679687500000004 -19.5, -20.6796875 -19.5 M-20.679687500000007 -19.5 C-20.679687500000004 -19.5, -20.6796875 -19.5, -20.6796875 -19.5" stroke="#2457d6" stroke-width="1.3" fill="none" stroke-dasharray="0 0" style="fill:#dbeafe !important;stroke:#2457d6 !important"/></g><g class="label" style="color:#172033 !important" transform="translate(-27.8046875, -12)"><rect/><foreignObject width="55.609375" height="24"><div style="color: rgb(23, 32, 51) !important; display: table-cell; white-space: nowrap; line-height: 1.5; max-width: 200px; text-align: center;" xmlns="http://www.w3.org/1999/xhtml"><span style="color:#172033 !important" class="nodeLabel"><p>Entrada</p></span></div></foreignObject></g></g><g class="node default validationClass" id="my-svg-flowchart-validate-1" data-look="classic" transform="translate(392.125, 124)"><rect class="basic label-container" style="fill:#fef3c7 !important;stroke:#f59e0b !important" x="-84.046875" y="-27" width="168.09375" height="54"/><g class="label" style="color:#172033 !important" transform="translate(-54.046875, -12)"><rect/><foreignObject width="108.09375" height="24"><div style="color: rgb(23, 32, 51) !important; display: table-cell; white-space: nowrap; line-height: 1.5; max-width: 200px; text-align: center;" xmlns="http://www.w3.org/1999/xhtml"><span style="color:#172033 !important" class="nodeLabel"><p>Validar história</p></span></div></foreignObject></g></g><g class="node default contextClass" id="my-svg-flowchart-context-3" data-look="classic" transform="translate(392.125, 228)"><rect class="basic label-container" style="fill:#dcfce7 !important;stroke:#00a884 !important" x="-114.2734375" y="-27" width="228.546875" height="54"/><g class="label" style="color:#172033 !important" transform="translate(-84.2734375, -12)"><rect/><foreignObject width="168.546875" height="24"><div style="color: rgb(23, 32, 51) !important; display: table-cell; white-space: nowrap; line-height: 1.5; max-width: 200px; text-align: center;" xmlns="http://www.w3.org/1999/xhtml"><span style="color:#172033 !important" class="nodeLabel"><p>Preparar contexto local</p></span></div></foreignObject></g></g><g class="node default graphClass" id="my-svg-flowchart-analyze-5" data-look="classic" transform="translate(392.125, 344)"><rect class="basic label-container" style="fill:#ede9fe !important;stroke:#7c3aed !important" x="-87.6015625" y="-39" width="175.203125" height="78"/><g class="label" style="color:#172033 !important" transform="translate(-57.6015625, -24)"><rect/><foreignObject width="115.203125" height="48"><div style="color: rgb(23, 32, 51) !important; display: table-cell; white-space: nowrap; line-height: 1.5; max-width: 200px; text-align: center;" xmlns="http://www.w3.org/1999/xhtml"><span style="color:#172033 !important" class="nodeLabel"><p>Analisar lacunas<br />e ambiguidades</p></span></div></foreignObject></g></g><g class="node default graphClass" id="my-svg-flowchart-draft-7" data-look="classic" transform="translate(392.125, 472)"><rect class="basic label-container" style="fill:#ede9fe !important;stroke:#7c3aed !important" x="-98.8125" y="-39" width="197.625" height="78"/><g class="label" style="color:#172033 !important" transform="translate(-68.8125, -24)"><rect/><foreignObject width="137.625" height="48"><div style="color: rgb(23, 32, 51) !important; display: table-cell; white-space: nowrap; line-height: 1.5; max-width: 200px; text-align: center;" xmlns="http://www.w3.org/1999/xhtml"><span style="color:#172033 !important" class="nodeLabel"><p>Gerar rascunho<br />critérios e cenários</p></span></div></foreignObject></g></g><g class="node default graphClass" id="my-svg-flowchart-decision-9" data-look="classic" transform="translate(392.125, 646.84375)"><polygon points="85.84375,0 171.6875,-85.84375 85.84375,-171.6875 0,-85.84375" class="label-container" transform="translate(-85.34375, 85.84375)" style="fill:#ede9fe !important;stroke:#7c3aed !important"/><g class="label" style="color:#172033 !important" transform="translate(-46.84375, -24)"><rect/><foreignObject width="93.6875" height="48"><div style="color: rgb(23, 32, 51) !important; display: table-cell; white-space: nowrap; line-height: 1.5; max-width: 200px; text-align: center;" xmlns="http://www.w3.org/1999/xhtml"><span style="color:#172033 !important" class="nodeLabel"><p>Configuração<br />de LLM</p></span></div></foreignObject></g></g><g class="node default graphClass" id="my-svg-flowchart-fallback-11" data-look="classic" transform="translate(122.171875, 845.6875)"><rect class="basic label-container" style="fill:#ede9fe !important;stroke:#7c3aed !important" x="-114.171875" y="-27" width="228.34375" height="54"/><g class="label" style="color:#172033 !important" transform="translate(-84.171875, -12)"><rect/><foreignObject width="168.34375" height="24"><div style="color: rgb(23, 32, 51) !important; display: table-cell; white-space: nowrap; line-height: 1.5; max-width: 200px; text-align: center;" xmlns="http://www.w3.org/1999/xhtml"><span style="color:#172033 !important" class="nodeLabel"><p>Fallback determinístico</p></span></div></foreignObject></g></g><g class="node default graphClass" id="my-svg-flowchart-llm-13" data-look="classic" transform="translate(392.125, 845.6875)"><rect class="basic label-container" style="fill:#ede9fe !important;stroke:#7c3aed !important" x="-105.78125" y="-27" width="211.5625" height="54"/><g class="label" style="color:#172033 !important" transform="translate(-75.78125, -12)"><rect/><foreignObject width="151.5625" height="24"><div style="color: rgb(23, 32, 51) !important; display: table-cell; white-space: nowrap; line-height: 1.5; max-width: 200px; text-align: center;" xmlns="http://www.w3.org/1999/xhtml"><span style="color:#172033 !important" class="nodeLabel"><p>Gerar plano com LLM</p></span></div></foreignObject></g></g><g class="node default errorClass" id="my-svg-flowchart-error-15" data-look="classic" transform="translate(639.37890625, 845.6875)"><rect class="basic label-container" style="fill:#fee2e2 !important;stroke:#dc2626 !important" x="-79.953125" y="-39" width="159.90625" height="78"/><g class="label" style="color:#172033 !important" transform="translate(-49.953125, -24)"><rect/><foreignObject width="99.90625" height="48"><div style="color: rgb(23, 32, 51) !important; display: table-cell; white-space: nowrap; line-height: 1.5; max-width: 200px; text-align: center;" xmlns="http://www.w3.org/1999/xhtml"><span style="color:#172033 !important" class="nodeLabel"><p>Falhar sem<br />mascarar erro</p></span></div></foreignObject></g></g><g class="node default outputClass" id="my-svg-flowchart-markdown-17" data-look="classic" transform="translate(257.1484375, 961.6875)"><rect class="basic label-container" style="fill:#f8fafc !important;stroke:#64748b !important" x="-104.625" y="-27" width="209.25" height="54"/><g class="label" style="color:#172033 !important" transform="translate(-74.625, -12)"><rect/><foreignObject width="149.25" height="24"><div style="color: rgb(23, 32, 51) !important; display: table-cell; white-space: nowrap; line-height: 1.5; max-width: 200px; text-align: center;" xmlns="http://www.w3.org/1999/xhtml"><span style="color:#172033 !important" class="nodeLabel"><p>Markdown em stdout</p></span></div></foreignObject></g></g><g class="node default outputClass" id="my-svg-flowchart-stderr-21" data-look="classic" transform="translate(639.37890625, 961.6875)"><rect class="basic label-container" style="fill:#f8fafc !important;stroke:#64748b !important" x="-104.1484375" y="-27" width="208.296875" height="54"/><g class="label" style="color:#172033 !important" transform="translate(-74.1484375, -12)"><rect/><foreignObject width="148.296875" height="24"><div style="color: rgb(23, 32, 51) !important; display: table-cell; white-space: nowrap; line-height: 1.5; max-width: 200px; text-align: center;" xmlns="http://www.w3.org/1999/xhtml"><span style="color:#172033 !important" class="nodeLabel"><p>Mensagem em stderr</p></span></div></foreignObject></g></g></g></g></g><defs><filter id="my-svg-drop-shadow" height="130%" width="130%"><feDropShadow dx="4" dy="4" stdDeviation="0" flood-opacity="0.06" flood-color="#000000"/></filter></defs><defs><filter id="my-svg-drop-shadow-small" height="150%" width="150%"><feDropShadow dx="2" dy="2" stdDeviation="0" flood-opacity="0.06" flood-color="#000000"/></filter></defs></svg>